M48
; DRILL file {KiCad (7.0.0)} date Tue Mar  7 23:44:18 2023
; FORMAT={-:-/ absolute / metric / decimal}
; #@! TF.CreationDate,2023-03-07T23:44:18+01:00
; #@! TF.GenerationSoftware,Kicad,Pcbnew,(7.0.0)
; #@! TF.FileFunction,Plated,1,2,PTH
FMAT,2
METRIC
; #@! TA.AperFunction,Plated,PTH,ComponentDrill
T1C0.900
; #@! TA.AperFunction,Plated,PTH,ComponentDrill
T2C1.000
; #@! TA.AperFunction,Plated,PTH,ComponentDrill
T3C1.092
; #@! TA.AperFunction,Plated,PTH,ComponentDrill
T4C1.100
; #@! TA.AperFunction,Plated,PTH,ComponentDrill
T5C1.200
; #@! TA.AperFunction,Plated,PTH,ComponentDrill
T6C1.500
; #@! TA.AperFunction,Plated,PTH,ComponentDrill
T7C1.550
%
G90
G05
T1
X214.25Y-58.25
X216.25Y-58.25
X218.25Y-58.25
T2
X198.4Y-58.58
X198.4Y-61.12
X198.4Y-63.66
X198.4Y-66.2
X198.4Y-68.74
X203.48Y-58.58
X203.48Y-61.12
X203.48Y-63.66
X203.48Y-66.2
X203.48Y-68.74
X203.48Y-71.28
T3
X68.76Y-56.63
X68.76Y-71.87
X71.3Y-56.63
X71.3Y-71.87
X73.84Y-56.63
X73.84Y-71.87
X76.38Y-56.63
X76.38Y-71.87
X78.92Y-56.63
X78.92Y-71.87
X81.46Y-56.63
X81.46Y-71.87
X84.0Y-56.63
X84.0Y-71.87
X86.54Y-56.63
X86.54Y-71.87
X89.08Y-56.63
X89.08Y-71.87
X91.62Y-56.63
X91.62Y-64.25
X91.62Y-66.79
X91.62Y-69.33
X91.62Y-71.87
X94.16Y-56.63
X94.16Y-71.87
X96.7Y-56.63
X96.7Y-71.87
T4
X66.7Y-78.25
X66.7Y-95.25
X66.7Y-112.25
X67.42Y-88.1
X67.42Y-105.1
X67.42Y-122.1
X74.0Y-88.4
X74.0Y-105.4
X74.0Y-122.4
X77.3Y-78.25
X77.3Y-95.25
X77.3Y-112.25
X84.7Y-78.25
X84.7Y-95.25
X84.7Y-112.25
X85.42Y-88.1
X85.42Y-105.1
X85.42Y-122.1
X92.0Y-88.4
X92.0Y-105.4
X92.0Y-122.4
X95.3Y-78.25
X95.3Y-95.25
X95.3Y-112.25
X101.75Y-60.75
X101.75Y-67.25
X102.7Y-78.25
X102.7Y-95.25
X102.7Y-112.25
X103.42Y-88.1
X103.42Y-105.1
X103.42Y-122.1
X106.25Y-60.75
X106.25Y-67.25
X110.0Y-88.4
X110.0Y-105.4
X110.0Y-122.4
X113.3Y-78.25
X113.3Y-95.25
X113.3Y-112.25
X120.7Y-78.25
X120.7Y-95.25
X120.7Y-112.25
X121.42Y-88.1
X121.42Y-105.1
X121.42Y-122.1
X128.0Y-88.4
X128.0Y-105.4
X128.0Y-122.4
X131.3Y-78.25
X131.3Y-95.25
X131.3Y-112.25
X134.2Y-129.25
X134.92Y-139.1
X138.7Y-78.25
X138.7Y-95.25
X138.7Y-112.25
X139.42Y-88.1
X139.42Y-105.1
X139.42Y-122.1
X141.5Y-139.4
X144.8Y-129.25
X146.0Y-88.4
X146.0Y-105.4
X146.0Y-122.4
X149.3Y-78.25
X149.3Y-95.25
X149.3Y-112.25
X156.7Y-78.25
X156.7Y-95.25
X156.7Y-112.25
X157.42Y-88.1
X157.42Y-105.1
X157.42Y-122.1
X161.2Y-129.25
X161.92Y-139.1
X164.0Y-88.4
X164.0Y-105.4
X164.0Y-122.4
X167.3Y-78.25
X167.3Y-95.25
X167.3Y-112.25
X168.5Y-139.4
X171.8Y-129.25
X174.7Y-78.25
X174.7Y-95.25
X174.7Y-112.25
X175.42Y-88.1
X175.42Y-105.1
X175.42Y-122.1
X182.0Y-88.4
X182.0Y-105.4
X182.0Y-122.4
X185.3Y-78.25
X185.3Y-95.25
X185.3Y-112.25
X192.7Y-78.25
X192.7Y-95.25
X192.7Y-112.25
X193.42Y-88.1
X193.42Y-105.1
X193.42Y-122.1
X200.0Y-88.4
X200.0Y-105.4
X200.0Y-122.4
X203.3Y-78.25
X203.3Y-95.25
X203.3Y-112.25
X210.7Y-78.25
X210.7Y-95.25
X210.7Y-112.25
X211.42Y-88.1
X211.42Y-105.1
X211.42Y-122.1
X218.0Y-88.4
X218.0Y-105.4
X218.0Y-122.4
X221.3Y-78.25
X221.3Y-95.25
X221.3Y-112.25
X228.7Y-78.25
X228.7Y-95.25
X228.7Y-112.25
X229.42Y-88.1
X229.42Y-105.1
X229.42Y-122.1
X236.0Y-88.4
X236.0Y-105.4
X236.0Y-122.4
X239.3Y-78.25
X239.3Y-95.25
X239.3Y-112.25
T5
X229.0Y-68.6
X234.0Y-70.7
T6
X212.15Y-58.25
X220.35Y-58.25
T7
X117.0Y-60.5
X117.0Y-67.5
T0
M30
