M48
; DRILL file {KiCad (7.0.0)} date Tue Mar  7 23:44:18 2023
; FORMAT={-:-/ absolute / metric / decimal}
; #@! TF.CreationDate,2023-03-07T23:44:18+01:00
; #@! TF.GenerationSoftware,Kicad,Pcbnew,(7.0.0)
; #@! TF.FileFunction,NonPlated,1,2,NPTH
FMAT,2
METRIC
; #@! TA.AperFunction,NonPlated,NPTH,ComponentDrill
T1C0.300
; #@! TA.AperFunction,NonPlated,NPTH,ComponentDrill
T2C1.000
; #@! TA.AperFunction,NonPlated,NPTH,ComponentDrill
T3C1.700
; #@! TA.AperFunction,NonPlated,NPTH,ComponentDrill
T4C2.000
; #@! TA.AperFunction,NonPlated,NPTH,ComponentDrill
T5C3.400
; #@! TA.AperFunction,NonPlated,NPTH,ComponentDrill
T6C5.800
%
G90
G05
T3
X228.5Y-64.8
X239.5Y-64.8
T5
X234.0Y-64.8
T1
X66.3Y-85.75G85X66.3Y-80.25
G05
X66.3Y-102.75G85X66.3Y-97.25
G05
X66.3Y-119.75G85X66.3Y-114.25
G05
X69.9Y-86.65G85X69.9Y-85.85
G05
X69.9Y-103.65G85X69.9Y-102.85
G05
X69.9Y-120.65G85X69.9Y-119.85
G05
X66.3Y-80.25G85X77.7Y-80.25
G05
X66.3Y-85.75G85X77.7Y-85.75
G05
X69.9Y-86.65G85X74.1Y-86.65
G05
X66.3Y-97.25G85X77.7Y-97.25
G05
X66.3Y-102.75G85X77.7Y-102.75
G05
X69.9Y-103.65G85X74.1Y-103.65
G05
X66.3Y-114.25G85X77.7Y-114.25
G05
X66.3Y-119.75G85X77.7Y-119.75
G05
X69.9Y-120.65G85X74.1Y-120.65
G05
X74.1Y-86.65G85X74.1Y-85.85
G05
X74.1Y-103.65G85X74.1Y-102.85
G05
X74.1Y-120.65G85X74.1Y-119.85
G05
X77.7Y-85.75G85X77.7Y-80.25
G05
X77.7Y-102.75G85X77.7Y-97.25
G05
X77.7Y-119.75G85X77.7Y-114.25
G05
X84.3Y-85.75G85X84.3Y-80.25
G05
X84.3Y-102.75G85X84.3Y-97.25
G05
X84.3Y-119.75G85X84.3Y-114.25
G05
X87.9Y-86.65G85X87.9Y-85.85
G05
X87.9Y-103.65G85X87.9Y-102.85
G05
X87.9Y-120.65G85X87.9Y-119.85
G05
X84.3Y-80.25G85X95.7Y-80.25
G05
X84.3Y-85.75G85X95.7Y-85.75
G05
X87.9Y-86.65G85X92.1Y-86.65
G05
X84.3Y-97.25G85X95.7Y-97.25
G05
X84.3Y-102.75G85X95.7Y-102.75
G05
X87.9Y-103.65G85X92.1Y-103.65
G05
X84.3Y-114.25G85X95.7Y-114.25
G05
X84.3Y-119.75G85X95.7Y-119.75
G05
X87.9Y-120.65G85X92.1Y-120.65
G05
X92.1Y-86.65G85X92.1Y-85.85
G05
X92.1Y-103.65G85X92.1Y-102.85
G05
X92.1Y-120.65G85X92.1Y-119.85
G05
X95.7Y-85.75G85X95.7Y-80.25
G05
X95.7Y-102.75G85X95.7Y-97.25
G05
X95.7Y-119.75G85X95.7Y-114.25
G05
X102.3Y-85.75G85X102.3Y-80.25
G05
X102.3Y-102.75G85X102.3Y-97.25
G05
X102.3Y-119.75G85X102.3Y-114.25
G05
X105.9Y-86.65G85X105.9Y-85.85
G05
X105.9Y-103.65G85X105.9Y-102.85
G05
X105.9Y-120.65G85X105.9Y-119.85
G05
X102.3Y-80.25G85X113.7Y-80.25
G05
X102.3Y-85.75G85X113.7Y-85.75
G05
X105.9Y-86.65G85X110.1Y-86.65
G05
X102.3Y-97.25G85X113.7Y-97.25
G05
X102.3Y-102.75G85X113.7Y-102.75
G05
X105.9Y-103.65G85X110.1Y-103.65
G05
X102.3Y-114.25G85X113.7Y-114.25
G05
X102.3Y-119.75G85X113.7Y-119.75
G05
X105.9Y-120.65G85X110.1Y-120.65
G05
X110.1Y-86.65G85X110.1Y-85.85
G05
X110.1Y-103.65G85X110.1Y-102.85
G05
X110.1Y-120.65G85X110.1Y-119.85
G05
X113.7Y-85.75G85X113.7Y-80.25
G05
X113.7Y-102.75G85X113.7Y-97.25
G05
X113.7Y-119.75G85X113.7Y-114.25
G05
X120.3Y-85.75G85X120.3Y-80.25
G05
X120.3Y-102.75G85X120.3Y-97.25
G05
X120.3Y-119.75G85X120.3Y-114.25
G05
X123.9Y-86.65G85X123.9Y-85.85
G05
X123.9Y-103.65G85X123.9Y-102.85
G05
X123.9Y-120.65G85X123.9Y-119.85
G05
X120.3Y-80.25G85X131.7Y-80.25
G05
X120.3Y-85.75G85X131.7Y-85.75
G05
X123.9Y-86.65G85X128.1Y-86.65
G05
X120.3Y-97.25G85X131.7Y-97.25
G05
X120.3Y-102.75G85X131.7Y-102.75
G05
X123.9Y-103.65G85X128.1Y-103.65
G05
X120.3Y-114.25G85X131.7Y-114.25
G05
X120.3Y-119.75G85X131.7Y-119.75
G05
X123.9Y-120.65G85X128.1Y-120.65
G05
X128.1Y-86.65G85X128.1Y-85.85
G05
X128.1Y-103.65G85X128.1Y-102.85
G05
X128.1Y-120.65G85X128.1Y-119.85
G05
X131.7Y-85.75G85X131.7Y-80.25
G05
X131.7Y-102.75G85X131.7Y-97.25
G05
X131.7Y-119.75G85X131.7Y-114.25
G05
X133.8Y-136.75G85X133.8Y-131.25
G05
X137.4Y-137.65G85X137.4Y-136.85
G05
X138.3Y-85.75G85X138.3Y-80.25
G05
X138.3Y-102.75G85X138.3Y-97.25
G05
X138.3Y-119.75G85X138.3Y-114.25
G05
X133.8Y-131.25G85X145.2Y-131.25
G05
X133.8Y-136.75G85X145.2Y-136.75
G05
X137.4Y-137.65G85X141.6Y-137.65
G05
X141.6Y-137.65G85X141.6Y-136.85
G05
X141.9Y-86.65G85X141.9Y-85.85
G05
X141.9Y-103.65G85X141.9Y-102.85
G05
X141.9Y-120.65G85X141.9Y-119.85
G05
X138.3Y-80.25G85X149.7Y-80.25
G05
X138.3Y-85.75G85X149.7Y-85.75
G05
X141.9Y-86.65G85X146.1Y-86.65
G05
X138.3Y-97.25G85X149.7Y-97.25
G05
X138.3Y-102.75G85X149.7Y-102.75
G05
X141.9Y-103.65G85X146.1Y-103.65
G05
X138.3Y-114.25G85X149.7Y-114.25
G05
X138.3Y-119.75G85X149.7Y-119.75
G05
X141.9Y-120.65G85X146.1Y-120.65
G05
X145.2Y-136.75G85X145.2Y-131.25
G05
X146.1Y-86.65G85X146.1Y-85.85
G05
X146.1Y-103.65G85X146.1Y-102.85
G05
X146.1Y-120.65G85X146.1Y-119.85
G05
X149.7Y-85.75G85X149.7Y-80.25
G05
X149.7Y-102.75G85X149.7Y-97.25
G05
X149.7Y-119.75G85X149.7Y-114.25
G05
X156.3Y-85.75G85X156.3Y-80.25
G05
X156.3Y-102.75G85X156.3Y-97.25
G05
X156.3Y-119.75G85X156.3Y-114.25
G05
X159.9Y-86.65G85X159.9Y-85.85
G05
X159.9Y-103.65G85X159.9Y-102.85
G05
X159.9Y-120.65G85X159.9Y-119.85
G05
X160.8Y-136.75G85X160.8Y-131.25
G05
X156.3Y-80.25G85X167.7Y-80.25
G05
X156.3Y-85.75G85X167.7Y-85.75
G05
X159.9Y-86.65G85X164.1Y-86.65
G05
X156.3Y-97.25G85X167.7Y-97.25
G05
X156.3Y-102.75G85X167.7Y-102.75
G05
X159.9Y-103.65G85X164.1Y-103.65
G05
X156.3Y-114.25G85X167.7Y-114.25
G05
X156.3Y-119.75G85X167.7Y-119.75
G05
X159.9Y-120.65G85X164.1Y-120.65
G05
X164.1Y-86.65G85X164.1Y-85.85
G05
X164.1Y-103.65G85X164.1Y-102.85
G05
X164.1Y-120.65G85X164.1Y-119.85
G05
X164.4Y-137.65G85X164.4Y-136.85
G05
X160.8Y-131.25G85X172.2Y-131.25
G05
X160.8Y-136.75G85X172.2Y-136.75
G05
X164.4Y-137.65G85X168.6Y-137.65
G05
X167.7Y-85.75G85X167.7Y-80.25
G05
X167.7Y-102.75G85X167.7Y-97.25
G05
X167.7Y-119.75G85X167.7Y-114.25
G05
X168.6Y-137.65G85X168.6Y-136.85
G05
X172.2Y-136.75G85X172.2Y-131.25
G05
X174.3Y-85.75G85X174.3Y-80.25
G05
X174.3Y-102.75G85X174.3Y-97.25
G05
X174.3Y-119.75G85X174.3Y-114.25
G05
X177.9Y-86.65G85X177.9Y-85.85
G05
X177.9Y-103.65G85X177.9Y-102.85
G05
X177.9Y-120.65G85X177.9Y-119.85
G05
X174.3Y-80.25G85X185.7Y-80.25
G05
X174.3Y-85.75G85X185.7Y-85.75
G05
X177.9Y-86.65G85X182.1Y-86.65
G05
X174.3Y-97.25G85X185.7Y-97.25
G05
X174.3Y-102.75G85X185.7Y-102.75
G05
X177.9Y-103.65G85X182.1Y-103.65
G05
X174.3Y-114.25G85X185.7Y-114.25
G05
X174.3Y-119.75G85X185.7Y-119.75
G05
X177.9Y-120.65G85X182.1Y-120.65
G05
X182.1Y-86.65G85X182.1Y-85.85
G05
X182.1Y-103.65G85X182.1Y-102.85
G05
X182.1Y-120.65G85X182.1Y-119.85
G05
X185.7Y-85.75G85X185.7Y-80.25
G05
X185.7Y-102.75G85X185.7Y-97.25
G05
X185.7Y-119.75G85X185.7Y-114.25
G05
X192.3Y-85.75G85X192.3Y-80.25
G05
X192.3Y-102.75G85X192.3Y-97.25
G05
X192.3Y-119.75G85X192.3Y-114.25
G05
X195.9Y-86.65G85X195.9Y-85.85
G05
X195.9Y-103.65G85X195.9Y-102.85
G05
X195.9Y-120.65G85X195.9Y-119.85
G05
X192.3Y-80.25G85X203.7Y-80.25
G05
X192.3Y-85.75G85X203.7Y-85.75
G05
X195.9Y-86.65G85X200.1Y-86.65
G05
X192.3Y-97.25G85X203.7Y-97.25
G05
X192.3Y-102.75G85X203.7Y-102.75
G05
X195.9Y-103.65G85X200.1Y-103.65
G05
X192.3Y-114.25G85X203.7Y-114.25
G05
X192.3Y-119.75G85X203.7Y-119.75
G05
X195.9Y-120.65G85X200.1Y-120.65
G05
X200.1Y-86.65G85X200.1Y-85.85
G05
X200.1Y-103.65G85X200.1Y-102.85
G05
X200.1Y-120.65G85X200.1Y-119.85
G05
X203.7Y-85.75G85X203.7Y-80.25
G05
X203.7Y-102.75G85X203.7Y-97.25
G05
X203.7Y-119.75G85X203.7Y-114.25
G05
X210.3Y-85.75G85X210.3Y-80.25
G05
X210.3Y-102.75G85X210.3Y-97.25
G05
X210.3Y-119.75G85X210.3Y-114.25
G05
X213.9Y-86.65G85X213.9Y-85.85
G05
X213.9Y-103.65G85X213.9Y-102.85
G05
X213.9Y-120.65G85X213.9Y-119.85
G05
X210.3Y-80.25G85X221.7Y-80.25
G05
X210.3Y-85.75G85X221.7Y-85.75
G05
X213.9Y-86.65G85X218.1Y-86.65
G05
X210.3Y-97.25G85X221.7Y-97.25
G05
X210.3Y-102.75G85X221.7Y-102.75
G05
X213.9Y-103.65G85X218.1Y-103.65
G05
X210.3Y-114.25G85X221.7Y-114.25
G05
X210.3Y-119.75G85X221.7Y-119.75
G05
X213.9Y-120.65G85X218.1Y-120.65
G05
X218.1Y-86.65G85X218.1Y-85.85
G05
X218.1Y-103.65G85X218.1Y-102.85
G05
X218.1Y-120.65G85X218.1Y-119.85
G05
X221.7Y-85.75G85X221.7Y-80.25
G05
X221.7Y-102.75G85X221.7Y-97.25
G05
X221.7Y-119.75G85X221.7Y-114.25
G05
X228.3Y-85.75G85X228.3Y-80.25
G05
X228.3Y-102.75G85X228.3Y-97.25
G05
X228.3Y-119.75G85X228.3Y-114.25
G05
X231.9Y-86.65G85X231.9Y-85.85
G05
X231.9Y-103.65G85X231.9Y-102.85
G05
X231.9Y-120.65G85X231.9Y-119.85
G05
X228.3Y-80.25G85X239.7Y-80.25
G05
X228.3Y-85.75G85X239.7Y-85.75
G05
X231.9Y-86.65G85X236.1Y-86.65
G05
X228.3Y-97.25G85X239.7Y-97.25
G05
X228.3Y-102.75G85X239.7Y-102.75
G05
X231.9Y-103.65G85X236.1Y-103.65
G05
X228.3Y-114.25G85X239.7Y-114.25
G05
X228.3Y-119.75G85X239.7Y-119.75
G05
X231.9Y-120.65G85X236.1Y-120.65
G05
X236.1Y-86.65G85X236.1Y-85.85
G05
X236.1Y-103.65G85X236.1Y-102.85
G05
X236.1Y-120.65G85X236.1Y-119.85
G05
X239.7Y-85.75G85X239.7Y-80.25
G05
X239.7Y-102.75G85X239.7Y-97.25
G05
X239.7Y-119.75G85X239.7Y-114.25
G05
T2
X70.25Y-86.3G85X73.75Y-86.3
G05
X70.25Y-103.3G85X73.75Y-103.3
G05
X70.25Y-120.3G85X73.75Y-120.3
G05
X88.25Y-86.3G85X91.75Y-86.3
G05
X88.25Y-103.3G85X91.75Y-103.3
G05
X88.25Y-120.3G85X91.75Y-120.3
G05
X106.25Y-86.3G85X109.75Y-86.3
G05
X106.25Y-103.3G85X109.75Y-103.3
G05
X106.25Y-120.3G85X109.75Y-120.3
G05
X124.25Y-86.3G85X127.75Y-86.3
G05
X124.25Y-103.3G85X127.75Y-103.3
G05
X124.25Y-120.3G85X127.75Y-120.3
G05
X137.75Y-137.3G85X141.25Y-137.3
G05
X142.25Y-86.3G85X145.75Y-86.3
G05
X142.25Y-103.3G85X145.75Y-103.3
G05
X142.25Y-120.3G85X145.75Y-120.3
G05
X160.25Y-86.3G85X163.75Y-86.3
G05
X160.25Y-103.3G85X163.75Y-103.3
G05
X160.25Y-120.3G85X163.75Y-120.3
G05
X164.75Y-137.3G85X168.25Y-137.3
G05
X178.25Y-86.3G85X181.75Y-86.3
G05
X178.25Y-103.3G85X181.75Y-103.3
G05
X178.25Y-120.3G85X181.75Y-120.3
G05
X196.25Y-86.3G85X199.75Y-86.3
G05
X196.25Y-103.3G85X199.75Y-103.3
G05
X196.25Y-120.3G85X199.75Y-120.3
G05
X214.25Y-86.3G85X217.75Y-86.3
G05
X214.25Y-103.3G85X217.75Y-103.3
G05
X214.25Y-120.3G85X217.75Y-120.3
G05
X232.25Y-86.3G85X235.75Y-86.3
G05
X232.25Y-103.3G85X235.75Y-103.3
G05
X232.25Y-120.3G85X235.75Y-120.3
G05
T4
X67.15Y-81.1G85X67.15Y-84.9
G05
X67.15Y-98.1G85X67.15Y-101.9
G05
X67.15Y-115.1G85X67.15Y-118.9
G05
X76.85Y-81.1G85X76.85Y-84.9
G05
X76.85Y-98.1G85X76.85Y-101.9
G05
X76.85Y-115.1G85X76.85Y-118.9
G05
X85.15Y-81.1G85X85.15Y-84.9
G05
X85.15Y-98.1G85X85.15Y-101.9
G05
X85.15Y-115.1G85X85.15Y-118.9
G05
X94.85Y-81.1G85X94.85Y-84.9
G05
X94.85Y-98.1G85X94.85Y-101.9
G05
X94.85Y-115.1G85X94.85Y-118.9
G05
X103.15Y-81.1G85X103.15Y-84.9
G05
X103.15Y-98.1G85X103.15Y-101.9
G05
X103.15Y-115.1G85X103.15Y-118.9
G05
X112.85Y-81.1G85X112.85Y-84.9
G05
X112.85Y-98.1G85X112.85Y-101.9
G05
X112.85Y-115.1G85X112.85Y-118.9
G05
X121.15Y-81.1G85X121.15Y-84.9
G05
X121.15Y-98.1G85X121.15Y-101.9
G05
X121.15Y-115.1G85X121.15Y-118.9
G05
X130.85Y-81.1G85X130.85Y-84.9
G05
X130.85Y-98.1G85X130.85Y-101.9
G05
X130.85Y-115.1G85X130.85Y-118.9
G05
X134.65Y-132.1G85X134.65Y-135.9
G05
X139.15Y-81.1G85X139.15Y-84.9
G05
X139.15Y-98.1G85X139.15Y-101.9
G05
X139.15Y-115.1G85X139.15Y-118.9
G05
X144.35Y-132.1G85X144.35Y-135.9
G05
X148.85Y-81.1G85X148.85Y-84.9
G05
X148.85Y-98.1G85X148.85Y-101.9
G05
X148.85Y-115.1G85X148.85Y-118.9
G05
X157.15Y-81.1G85X157.15Y-84.9
G05
X157.15Y-98.1G85X157.15Y-101.9
G05
X157.15Y-115.1G85X157.15Y-118.9
G05
X161.65Y-132.1G85X161.65Y-135.9
G05
X166.85Y-81.1G85X166.85Y-84.9
G05
X166.85Y-98.1G85X166.85Y-101.9
G05
X166.85Y-115.1G85X166.85Y-118.9
G05
X171.35Y-132.1G85X171.35Y-135.9
G05
X175.15Y-81.1G85X175.15Y-84.9
G05
X175.15Y-98.1G85X175.15Y-101.9
G05
X175.15Y-115.1G85X175.15Y-118.9
G05
X184.85Y-81.1G85X184.85Y-84.9
G05
X184.85Y-98.1G85X184.85Y-101.9
G05
X184.85Y-115.1G85X184.85Y-118.9
G05
X193.15Y-81.1G85X193.15Y-84.9
G05
X193.15Y-98.1G85X193.15Y-101.9
G05
X193.15Y-115.1G85X193.15Y-118.9
G05
X202.85Y-81.1G85X202.85Y-84.9
G05
X202.85Y-98.1G85X202.85Y-101.9
G05
X202.85Y-115.1G85X202.85Y-118.9
G05
X211.15Y-81.1G85X211.15Y-84.9
G05
X211.15Y-98.1G85X211.15Y-101.9
G05
X211.15Y-115.1G85X211.15Y-118.9
G05
X220.85Y-81.1G85X220.85Y-84.9
G05
X220.85Y-98.1G85X220.85Y-101.9
G05
X220.85Y-115.1G85X220.85Y-118.9
G05
X229.15Y-81.1G85X229.15Y-84.9
G05
X229.15Y-98.1G85X229.15Y-101.9
G05
X229.15Y-115.1G85X229.15Y-118.9
G05
X238.85Y-81.1G85X238.85Y-84.9
G05
X238.85Y-98.1G85X238.85Y-101.9
G05
X238.85Y-115.1G85X238.85Y-118.9
G05
T6
X69.05Y-83.0G85X74.95Y-83.0
G05
X69.05Y-100.0G85X74.95Y-100.0
G05
X69.05Y-117.0G85X74.95Y-117.0
G05
X87.05Y-83.0G85X92.95Y-83.0
G05
X87.05Y-100.0G85X92.95Y-100.0
G05
X87.05Y-117.0G85X92.95Y-117.0
G05
X105.05Y-83.0G85X110.95Y-83.0
G05
X105.05Y-100.0G85X110.95Y-100.0
G05
X105.05Y-117.0G85X110.95Y-117.0
G05
X123.05Y-83.0G85X128.95Y-83.0
G05
X123.05Y-100.0G85X128.95Y-100.0
G05
X123.05Y-117.0G85X128.95Y-117.0
G05
X136.55Y-134.0G85X142.45Y-134.0
G05
X141.05Y-83.0G85X146.95Y-83.0
G05
X141.05Y-100.0G85X146.95Y-100.0
G05
X141.05Y-117.0G85X146.95Y-117.0
G05
X159.05Y-83.0G85X164.95Y-83.0
G05
X159.05Y-100.0G85X164.95Y-100.0
G05
X159.05Y-117.0G85X164.95Y-117.0
G05
X163.55Y-134.0G85X169.45Y-134.0
G05
X177.05Y-83.0G85X182.95Y-83.0
G05
X177.05Y-100.0G85X182.95Y-100.0
G05
X177.05Y-117.0G85X182.95Y-117.0
G05
X195.05Y-83.0G85X200.95Y-83.0
G05
X195.05Y-100.0G85X200.95Y-100.0
G05
X195.05Y-117.0G85X200.95Y-117.0
G05
X213.05Y-83.0G85X218.95Y-83.0
G05
X213.05Y-100.0G85X218.95Y-100.0
G05
X213.05Y-117.0G85X218.95Y-117.0
G05
X231.05Y-83.0G85X236.95Y-83.0
G05
X231.05Y-100.0G85X236.95Y-100.0
G05
X231.05Y-117.0G85X236.95Y-117.0
G05
T0
M30
