G04 #@! TF.GenerationSoftware,KiCad,Pcbnew,(7.0.0)*
G04 #@! TF.CreationDate,2023-03-07T23:42:06+01:00*
G04 #@! TF.ProjectId,mqz_board,6d717a5f-626f-4617-9264-2e6b69636164,rev?*
G04 #@! TF.SameCoordinates,Original*
G04 #@! TF.FileFunction,Soldermask,Bot*
G04 #@! TF.FilePolarity,Negative*
%FSLAX46Y46*%
G04 Gerber Fmt 4.6, Leading zero omitted, Abs format (unit mm)*
G04 Created by KiCad (PCBNEW (7.0.0)) date 2023-03-07 23:42:06*
%MOMM*%
%LPD*%
G01*
G04 APERTURE LIST*
G04 Aperture macros list*
%AMRoundRect*
0 Rectangle with rounded corners*
0 $1 Rounding radius*
0 $2 $3 $4 $5 $6 $7 $8 $9 X,Y pos of 4 corners*
0 Add a 4 corners polygon primitive as box body*
4,1,4,$2,$3,$4,$5,$6,$7,$8,$9,$2,$3,0*
0 Add four circle primitives for the rounded corners*
1,1,$1+$1,$2,$3*
1,1,$1+$1,$4,$5*
1,1,$1+$1,$6,$7*
1,1,$1+$1,$8,$9*
0 Add four rect primitives between the rounded corners*
20,1,$1+$1,$2,$3,$4,$5,0*
20,1,$1+$1,$4,$5,$6,$7,0*
20,1,$1+$1,$6,$7,$8,$9,0*
20,1,$1+$1,$8,$9,$2,$3,0*%
G04 Aperture macros list end*
%ADD10O,0.300000X5.800000*%
%ADD11O,2.000000X5.800000*%
%ADD12O,0.300000X1.100000*%
%ADD13O,11.700000X0.300000*%
%ADD14O,11.700000X5.800000*%
%ADD15O,4.500000X1.000000*%
%ADD16O,4.500000X0.300000*%
%ADD17C,1.600000*%
%ADD18O,2.200000X3.500000*%
%ADD19R,1.500000X2.500000*%
%ADD20O,1.500000X2.500000*%
%ADD21C,1.752600*%
%ADD22R,1.700000X1.700000*%
%ADD23O,1.700000X1.700000*%
%ADD24C,1.700000*%
%ADD25C,3.400000*%
%ADD26C,2.000000*%
%ADD27RoundRect,0.250002X1.499998X-1.499998X1.499998X1.499998X-1.499998X1.499998X-1.499998X-1.499998X0*%
%ADD28C,3.500000*%
G04 APERTURE END LIST*
D10*
X192299999Y-116999999D03*
D11*
X193149999Y-116999999D03*
D12*
X195899999Y-120249999D03*
D13*
X197999999Y-114249999D03*
D14*
X197999999Y-116999999D03*
D13*
X197999999Y-119749999D03*
D15*
X197999999Y-120299999D03*
D16*
X197999999Y-120649999D03*
D12*
X200099999Y-120249999D03*
D11*
X202849999Y-116999999D03*
D10*
X203699999Y-116999999D03*
D17*
X200000000Y-122400000D03*
X193420000Y-122100000D03*
X192700000Y-112250000D03*
X203300000Y-112250000D03*
D10*
X228299999Y-99999999D03*
D11*
X229149999Y-99999999D03*
D12*
X231899999Y-103249999D03*
D13*
X233999999Y-97249999D03*
D14*
X233999999Y-99999999D03*
D13*
X233999999Y-102749999D03*
D15*
X233999999Y-103299999D03*
D16*
X233999999Y-103649999D03*
D12*
X236099999Y-103249999D03*
D11*
X238849999Y-99999999D03*
D10*
X239699999Y-99999999D03*
D17*
X236000000Y-105400000D03*
X229420000Y-105100000D03*
X228700000Y-95250000D03*
X239300000Y-95250000D03*
D10*
X210299999Y-99999999D03*
D11*
X211149999Y-99999999D03*
D12*
X213899999Y-103249999D03*
D13*
X215999999Y-97249999D03*
D14*
X215999999Y-99999999D03*
D13*
X215999999Y-102749999D03*
D15*
X215999999Y-103299999D03*
D16*
X215999999Y-103649999D03*
D12*
X218099999Y-103249999D03*
D11*
X220849999Y-99999999D03*
D10*
X221699999Y-99999999D03*
D17*
X218000000Y-105400000D03*
X211420000Y-105100000D03*
X210700000Y-95250000D03*
X221300000Y-95250000D03*
D10*
X102299999Y-116999999D03*
D11*
X103149999Y-116999999D03*
D12*
X105899999Y-120249999D03*
D13*
X107999999Y-114249999D03*
D14*
X107999999Y-116999999D03*
D13*
X107999999Y-119749999D03*
D15*
X107999999Y-120299999D03*
D16*
X107999999Y-120649999D03*
D12*
X110099999Y-120249999D03*
D11*
X112849999Y-116999999D03*
D10*
X113699999Y-116999999D03*
D17*
X110000000Y-122400000D03*
X103420000Y-122100000D03*
X102700000Y-112250000D03*
X113300000Y-112250000D03*
D10*
X138299999Y-82999999D03*
D11*
X139149999Y-82999999D03*
D12*
X141899999Y-86249999D03*
D13*
X143999999Y-80249999D03*
D14*
X143999999Y-82999999D03*
D13*
X143999999Y-85749999D03*
D15*
X143999999Y-86299999D03*
D16*
X143999999Y-86649999D03*
D12*
X146099999Y-86249999D03*
D11*
X148849999Y-82999999D03*
D10*
X149699999Y-82999999D03*
D17*
X146000000Y-88400000D03*
X139420000Y-88100000D03*
X138700000Y-78250000D03*
X149300000Y-78250000D03*
D10*
X138299999Y-99999999D03*
D11*
X139149999Y-99999999D03*
D12*
X141899999Y-103249999D03*
D13*
X143999999Y-97249999D03*
D14*
X143999999Y-99999999D03*
D13*
X143999999Y-102749999D03*
D15*
X143999999Y-103299999D03*
D16*
X143999999Y-103649999D03*
D12*
X146099999Y-103249999D03*
D11*
X148849999Y-99999999D03*
D10*
X149699999Y-99999999D03*
D17*
X146000000Y-105400000D03*
X139420000Y-105100000D03*
X138700000Y-95250000D03*
X149300000Y-95250000D03*
D18*
X220349999Y-58249999D03*
X212149999Y-58249999D03*
D19*
X218249999Y-58249999D03*
D20*
X216249999Y-58249999D03*
X214249999Y-58249999D03*
D10*
X133799999Y-133999999D03*
D11*
X134649999Y-133999999D03*
D12*
X137399999Y-137249999D03*
D13*
X139499999Y-131249999D03*
D14*
X139499999Y-133999999D03*
D13*
X139499999Y-136749999D03*
D15*
X139499999Y-137299999D03*
D16*
X139499999Y-137649999D03*
D12*
X141599999Y-137249999D03*
D11*
X144349999Y-133999999D03*
D10*
X145199999Y-133999999D03*
D17*
X141500000Y-139400000D03*
X134920000Y-139100000D03*
X134200000Y-129250000D03*
X144800000Y-129250000D03*
D10*
X228299999Y-82999999D03*
D11*
X229149999Y-82999999D03*
D12*
X231899999Y-86249999D03*
D13*
X233999999Y-80249999D03*
D14*
X233999999Y-82999999D03*
D13*
X233999999Y-85749999D03*
D15*
X233999999Y-86299999D03*
D16*
X233999999Y-86649999D03*
D12*
X236099999Y-86249999D03*
D11*
X238849999Y-82999999D03*
D10*
X239699999Y-82999999D03*
D17*
X236000000Y-88400000D03*
X229420000Y-88100000D03*
X228700000Y-78250000D03*
X239300000Y-78250000D03*
D10*
X66299999Y-116999999D03*
D11*
X67149999Y-116999999D03*
D12*
X69899999Y-120249999D03*
D13*
X71999999Y-114249999D03*
D14*
X71999999Y-116999999D03*
D13*
X71999999Y-119749999D03*
D15*
X71999999Y-120299999D03*
D16*
X71999999Y-120649999D03*
D12*
X74099999Y-120249999D03*
D11*
X76849999Y-116999999D03*
D10*
X77699999Y-116999999D03*
D17*
X74000000Y-122400000D03*
X67420000Y-122100000D03*
X66700000Y-112250000D03*
X77300000Y-112250000D03*
D10*
X156299999Y-82999999D03*
D11*
X157149999Y-82999999D03*
D12*
X159899999Y-86249999D03*
D13*
X161999999Y-80249999D03*
D14*
X161999999Y-82999999D03*
D13*
X161999999Y-85749999D03*
D15*
X161999999Y-86299999D03*
D16*
X161999999Y-86649999D03*
D12*
X164099999Y-86249999D03*
D11*
X166849999Y-82999999D03*
D10*
X167699999Y-82999999D03*
D17*
X164000000Y-88400000D03*
X157420000Y-88100000D03*
X156700000Y-78250000D03*
X167300000Y-78250000D03*
D21*
X68760000Y-71870000D03*
X71300000Y-71870000D03*
X73840000Y-71870000D03*
X76380000Y-71870000D03*
X78920000Y-71870000D03*
X81460000Y-71870000D03*
X84000000Y-71870000D03*
X86540000Y-71870000D03*
X89080000Y-71870000D03*
X91620000Y-71870000D03*
X94160000Y-71870000D03*
X96700000Y-71870000D03*
X96700000Y-56630000D03*
X94160000Y-56630000D03*
X91620000Y-56630000D03*
X89080000Y-56630000D03*
X86540000Y-56630000D03*
X84000000Y-56630000D03*
X81460000Y-56630000D03*
X78920000Y-56630000D03*
X76380000Y-56630000D03*
X73840000Y-56630000D03*
X71300000Y-56630000D03*
X68760000Y-56630000D03*
X91620000Y-69330000D03*
X91620000Y-66790000D03*
X91620000Y-64250000D03*
D10*
X156299999Y-99999999D03*
D11*
X157149999Y-99999999D03*
D12*
X159899999Y-103249999D03*
D13*
X161999999Y-97249999D03*
D14*
X161999999Y-99999999D03*
D13*
X161999999Y-102749999D03*
D15*
X161999999Y-103299999D03*
D16*
X161999999Y-103649999D03*
D12*
X164099999Y-103249999D03*
D11*
X166849999Y-99999999D03*
D10*
X167699999Y-99999999D03*
D17*
X164000000Y-105400000D03*
X157420000Y-105100000D03*
X156700000Y-95250000D03*
X167300000Y-95250000D03*
D22*
X198399999Y-68739999D03*
D23*
X198399999Y-66199999D03*
X198399999Y-63659999D03*
X198399999Y-61119999D03*
X198399999Y-58579999D03*
D10*
X192299999Y-99999999D03*
D11*
X193149999Y-99999999D03*
D12*
X195899999Y-103249999D03*
D13*
X197999999Y-97249999D03*
D14*
X197999999Y-99999999D03*
D13*
X197999999Y-102749999D03*
D15*
X197999999Y-103299999D03*
D16*
X197999999Y-103649999D03*
D12*
X200099999Y-103249999D03*
D11*
X202849999Y-99999999D03*
D10*
X203699999Y-99999999D03*
D17*
X200000000Y-105400000D03*
X193420000Y-105100000D03*
X192700000Y-95250000D03*
X203300000Y-95250000D03*
D10*
X84299999Y-99999999D03*
D11*
X85149999Y-99999999D03*
D12*
X87899999Y-103249999D03*
D13*
X89999999Y-97249999D03*
D14*
X89999999Y-99999999D03*
D13*
X89999999Y-102749999D03*
D15*
X89999999Y-103299999D03*
D16*
X89999999Y-103649999D03*
D12*
X92099999Y-103249999D03*
D11*
X94849999Y-99999999D03*
D10*
X95699999Y-99999999D03*
D17*
X92000000Y-105400000D03*
X85420000Y-105100000D03*
X84700000Y-95250000D03*
X95300000Y-95250000D03*
D10*
X174299999Y-82999999D03*
D11*
X175149999Y-82999999D03*
D12*
X177899999Y-86249999D03*
D13*
X179999999Y-80249999D03*
D14*
X179999999Y-82999999D03*
D13*
X179999999Y-85749999D03*
D15*
X179999999Y-86299999D03*
D16*
X179999999Y-86649999D03*
D12*
X182099999Y-86249999D03*
D11*
X184849999Y-82999999D03*
D10*
X185699999Y-82999999D03*
D17*
X182000000Y-88400000D03*
X175420000Y-88100000D03*
X174700000Y-78250000D03*
X185300000Y-78250000D03*
D10*
X210299999Y-82999999D03*
D11*
X211149999Y-82999999D03*
D12*
X213899999Y-86249999D03*
D13*
X215999999Y-80249999D03*
D14*
X215999999Y-82999999D03*
D13*
X215999999Y-85749999D03*
D15*
X215999999Y-86299999D03*
D16*
X215999999Y-86649999D03*
D12*
X218099999Y-86249999D03*
D11*
X220849999Y-82999999D03*
D10*
X221699999Y-82999999D03*
D17*
X218000000Y-88400000D03*
X211420000Y-88100000D03*
X210700000Y-78250000D03*
X221300000Y-78250000D03*
D10*
X66299999Y-99999999D03*
D11*
X67149999Y-99999999D03*
D12*
X69899999Y-103249999D03*
D13*
X71999999Y-97249999D03*
D14*
X71999999Y-99999999D03*
D13*
X71999999Y-102749999D03*
D15*
X71999999Y-103299999D03*
D16*
X71999999Y-103649999D03*
D12*
X74099999Y-103249999D03*
D11*
X76849999Y-99999999D03*
D10*
X77699999Y-99999999D03*
D17*
X74000000Y-105400000D03*
X67420000Y-105100000D03*
X66700000Y-95250000D03*
X77300000Y-95250000D03*
D10*
X102299999Y-99999999D03*
D11*
X103149999Y-99999999D03*
D12*
X105899999Y-103249999D03*
D13*
X107999999Y-97249999D03*
D14*
X107999999Y-99999999D03*
D13*
X107999999Y-102749999D03*
D15*
X107999999Y-103299999D03*
D16*
X107999999Y-103649999D03*
D12*
X110099999Y-103249999D03*
D11*
X112849999Y-99999999D03*
D10*
X113699999Y-99999999D03*
D17*
X110000000Y-105400000D03*
X103420000Y-105100000D03*
X102700000Y-95250000D03*
X113300000Y-95250000D03*
D10*
X120299999Y-116999999D03*
D11*
X121149999Y-116999999D03*
D12*
X123899999Y-120249999D03*
D13*
X125999999Y-114249999D03*
D14*
X125999999Y-116999999D03*
D13*
X125999999Y-119749999D03*
D15*
X125999999Y-120299999D03*
D16*
X125999999Y-120649999D03*
D12*
X128099999Y-120249999D03*
D11*
X130849999Y-116999999D03*
D10*
X131699999Y-116999999D03*
D17*
X128000000Y-122400000D03*
X121420000Y-122100000D03*
X120700000Y-112250000D03*
X131300000Y-112250000D03*
D10*
X192299999Y-82999999D03*
D11*
X193149999Y-82999999D03*
D12*
X195899999Y-86249999D03*
D13*
X197999999Y-80249999D03*
D14*
X197999999Y-82999999D03*
D13*
X197999999Y-85749999D03*
D15*
X197999999Y-86299999D03*
D16*
X197999999Y-86649999D03*
D12*
X200099999Y-86249999D03*
D11*
X202849999Y-82999999D03*
D10*
X203699999Y-82999999D03*
D17*
X200000000Y-88400000D03*
X193420000Y-88100000D03*
X192700000Y-78250000D03*
X203300000Y-78250000D03*
D24*
X239500000Y-64800000D03*
D25*
X234000000Y-64800000D03*
D24*
X228500000Y-64800000D03*
D26*
X234000000Y-70700000D03*
X229000000Y-68600000D03*
D10*
X174299999Y-116999999D03*
D11*
X175149999Y-116999999D03*
D12*
X177899999Y-120249999D03*
D13*
X179999999Y-114249999D03*
D14*
X179999999Y-116999999D03*
D13*
X179999999Y-119749999D03*
D15*
X179999999Y-120299999D03*
D16*
X179999999Y-120649999D03*
D12*
X182099999Y-120249999D03*
D11*
X184849999Y-116999999D03*
D10*
X185699999Y-116999999D03*
D17*
X182000000Y-122400000D03*
X175420000Y-122100000D03*
X174700000Y-112250000D03*
X185300000Y-112250000D03*
D10*
X66299999Y-82999999D03*
D11*
X67149999Y-82999999D03*
D12*
X69899999Y-86249999D03*
D13*
X71999999Y-80249999D03*
D14*
X71999999Y-82999999D03*
D13*
X71999999Y-85749999D03*
D15*
X71999999Y-86299999D03*
D16*
X71999999Y-86649999D03*
D12*
X74099999Y-86249999D03*
D11*
X76849999Y-82999999D03*
D10*
X77699999Y-82999999D03*
D17*
X74000000Y-88400000D03*
X67420000Y-88100000D03*
X66700000Y-78250000D03*
X77300000Y-78250000D03*
D10*
X228299999Y-116999999D03*
D11*
X229149999Y-116999999D03*
D12*
X231899999Y-120249999D03*
D13*
X233999999Y-114249999D03*
D14*
X233999999Y-116999999D03*
D13*
X233999999Y-119749999D03*
D15*
X233999999Y-120299999D03*
D16*
X233999999Y-120649999D03*
D12*
X236099999Y-120249999D03*
D11*
X238849999Y-116999999D03*
D10*
X239699999Y-116999999D03*
D17*
X236000000Y-122400000D03*
X229420000Y-122100000D03*
X228700000Y-112250000D03*
X239300000Y-112250000D03*
D26*
X101750000Y-67250000D03*
X101750000Y-60750000D03*
X106250000Y-67250000D03*
X106250000Y-60750000D03*
D10*
X156299999Y-116999999D03*
D11*
X157149999Y-116999999D03*
D12*
X159899999Y-120249999D03*
D13*
X161999999Y-114249999D03*
D14*
X161999999Y-116999999D03*
D13*
X161999999Y-119749999D03*
D15*
X161999999Y-120299999D03*
D16*
X161999999Y-120649999D03*
D12*
X164099999Y-120249999D03*
D11*
X166849999Y-116999999D03*
D10*
X167699999Y-116999999D03*
D17*
X164000000Y-122400000D03*
X157420000Y-122100000D03*
X156700000Y-112250000D03*
X167300000Y-112250000D03*
D10*
X84299999Y-116999999D03*
D11*
X85149999Y-116999999D03*
D12*
X87899999Y-120249999D03*
D13*
X89999999Y-114249999D03*
D14*
X89999999Y-116999999D03*
D13*
X89999999Y-119749999D03*
D15*
X89999999Y-120299999D03*
D16*
X89999999Y-120649999D03*
D12*
X92099999Y-120249999D03*
D11*
X94849999Y-116999999D03*
D10*
X95699999Y-116999999D03*
D17*
X92000000Y-122400000D03*
X85420000Y-122100000D03*
X84700000Y-112250000D03*
X95300000Y-112250000D03*
D10*
X160799999Y-133999999D03*
D11*
X161649999Y-133999999D03*
D12*
X164399999Y-137249999D03*
D13*
X166499999Y-131249999D03*
D14*
X166499999Y-133999999D03*
D13*
X166499999Y-136749999D03*
D15*
X166499999Y-137299999D03*
D16*
X166499999Y-137649999D03*
D12*
X168599999Y-137249999D03*
D11*
X171349999Y-133999999D03*
D10*
X172199999Y-133999999D03*
D17*
X168500000Y-139400000D03*
X161920000Y-139100000D03*
X161200000Y-129250000D03*
X171800000Y-129250000D03*
D27*
X117000000Y-67500000D03*
D28*
X117000000Y-60500000D03*
D10*
X174299999Y-99999999D03*
D11*
X175149999Y-99999999D03*
D12*
X177899999Y-103249999D03*
D13*
X179999999Y-97249999D03*
D14*
X179999999Y-99999999D03*
D13*
X179999999Y-102749999D03*
D15*
X179999999Y-103299999D03*
D16*
X179999999Y-103649999D03*
D12*
X182099999Y-103249999D03*
D11*
X184849999Y-99999999D03*
D10*
X185699999Y-99999999D03*
D17*
X182000000Y-105400000D03*
X175420000Y-105100000D03*
X174700000Y-95250000D03*
X185300000Y-95250000D03*
D10*
X210299999Y-116999999D03*
D11*
X211149999Y-116999999D03*
D12*
X213899999Y-120249999D03*
D13*
X215999999Y-114249999D03*
D14*
X215999999Y-116999999D03*
D13*
X215999999Y-119749999D03*
D15*
X215999999Y-120299999D03*
D16*
X215999999Y-120649999D03*
D12*
X218099999Y-120249999D03*
D11*
X220849999Y-116999999D03*
D10*
X221699999Y-116999999D03*
D17*
X218000000Y-122400000D03*
X211420000Y-122100000D03*
X210700000Y-112250000D03*
X221300000Y-112250000D03*
D10*
X120299999Y-82999999D03*
D11*
X121149999Y-82999999D03*
D12*
X123899999Y-86249999D03*
D13*
X125999999Y-80249999D03*
D14*
X125999999Y-82999999D03*
D13*
X125999999Y-85749999D03*
D15*
X125999999Y-86299999D03*
D16*
X125999999Y-86649999D03*
D12*
X128099999Y-86249999D03*
D11*
X130849999Y-82999999D03*
D10*
X131699999Y-82999999D03*
D17*
X128000000Y-88400000D03*
X121420000Y-88100000D03*
X120700000Y-78250000D03*
X131300000Y-78250000D03*
D10*
X138299999Y-116999999D03*
D11*
X139149999Y-116999999D03*
D12*
X141899999Y-120249999D03*
D13*
X143999999Y-114249999D03*
D14*
X143999999Y-116999999D03*
D13*
X143999999Y-119749999D03*
D15*
X143999999Y-120299999D03*
D16*
X143999999Y-120649999D03*
D12*
X146099999Y-120249999D03*
D11*
X148849999Y-116999999D03*
D10*
X149699999Y-116999999D03*
D17*
X146000000Y-122400000D03*
X139420000Y-122100000D03*
X138700000Y-112250000D03*
X149300000Y-112250000D03*
D22*
X203479999Y-71279999D03*
D23*
X203479999Y-68739999D03*
X203479999Y-66199999D03*
X203479999Y-63659999D03*
X203479999Y-61119999D03*
X203479999Y-58579999D03*
D10*
X84299999Y-82999999D03*
D11*
X85149999Y-82999999D03*
D12*
X87899999Y-86249999D03*
D13*
X89999999Y-80249999D03*
D14*
X89999999Y-82999999D03*
D13*
X89999999Y-85749999D03*
D15*
X89999999Y-86299999D03*
D16*
X89999999Y-86649999D03*
D12*
X92099999Y-86249999D03*
D11*
X94849999Y-82999999D03*
D10*
X95699999Y-82999999D03*
D17*
X92000000Y-88400000D03*
X85420000Y-88100000D03*
X84700000Y-78250000D03*
X95300000Y-78250000D03*
D10*
X120299999Y-99999999D03*
D11*
X121149999Y-99999999D03*
D12*
X123899999Y-103249999D03*
D13*
X125999999Y-97249999D03*
D14*
X125999999Y-99999999D03*
D13*
X125999999Y-102749999D03*
D15*
X125999999Y-103299999D03*
D16*
X125999999Y-103649999D03*
D12*
X128099999Y-103249999D03*
D11*
X130849999Y-99999999D03*
D10*
X131699999Y-99999999D03*
D17*
X128000000Y-105400000D03*
X121420000Y-105100000D03*
X120700000Y-95250000D03*
X131300000Y-95250000D03*
D10*
X102299999Y-82999999D03*
D11*
X103149999Y-82999999D03*
D12*
X105899999Y-86249999D03*
D13*
X107999999Y-80249999D03*
D14*
X107999999Y-82999999D03*
D13*
X107999999Y-85749999D03*
D15*
X107999999Y-86299999D03*
D16*
X107999999Y-86649999D03*
D12*
X110099999Y-86249999D03*
D11*
X112849999Y-82999999D03*
D10*
X113699999Y-82999999D03*
D17*
X110000000Y-88400000D03*
X103420000Y-88100000D03*
X102700000Y-78250000D03*
X113300000Y-78250000D03*
M02*
